<svg width="49" height="40" viewBox="0 0 49 40" fill="none" xmlns="http://www.w3.org/2000/svg">
    <path d="M25.4915 28.4294C31.565 30.2444 40.068 24.5273 43.0229 21.7146C50.8364 14.277 49.552 1.39566 33.0756 1.19116C18.9701 1.01608 8.80192 7.32416 4.57018 14.9911C1.18091 21.1317 -3.16848 34.5945 7.38367 38.1841C17.0931 41.487 28.907 32.0303 33.1197 27.6907C36.9351 23.7604 39.9373 19.4893 42.0089 15.2932C43.8782 11.5067 43.9926 8.08492 44.8543 4.32847" stroke="#252020" stroke-opacity="0.7" stroke-linecap="round"/>
    <path d="M25.4915 28.4294C31.565 30.2444 40.068 24.5273 43.0229 21.7146C50.8364 14.277 49.552 1.39566 33.0756 1.19116C18.9701 1.01608 8.80192 7.32416 4.57018 14.9911C1.18091 21.1317 -3.16848 34.5945 7.38367 38.1841C17.0931 41.487 28.907 32.0303 33.1197 27.6907C36.9351 23.7604 39.9373 19.4893 42.0089 15.2932C43.8782 11.5067 43.9926 8.08492 44.8543 4.32847" stroke="#EACE9D" stroke-opacity="0.7" stroke-linecap="round"/>
</svg>
